<?xml version="1.0" encoding="UTF-8" standalone="no"?>
<!DOCTYPE svg PUBLIC "-//W3C//DTD SVG 1.1//EN"
 "http://www.w3.org/Graphics/SVG/1.1/DTD/svg11.dtd">
<!-- Generated by graphviz version 2.38.0 (20140413.2041)
 -->
<!-- Title: %3 Pages: 1 -->
<svg width="3191pt" height="133pt"
 viewBox="0.00 0.00 3190.83 133.10" xmlns="http://www.w3.org/2000/svg" xmlns:xlink="http://www.w3.org/1999/xlink">
<g id="graph0" class="graph" transform="scale(1 1) rotate(0) translate(4 129.095)">
<title>%3</title>
<polygon fill="white" stroke="none" points="-4,4 -4,-129.095 3186.83,-129.095 3186.83,4 -4,4"/>
<!-- 1playerX -->
<g id="node1" class="node"><title>1playerX</title>
<polygon fill="lightgray" stroke="black" points="43,-108.347 0,-108.347 0,-92.3467 43,-92.3467 43,-108.347"/>
<text text-anchor="middle" x="21.5" y="-98.7467" font-family="Times New Roman,serif" font-size="7.00">1playerX</text>
</g>
<!-- 1playerY -->
<g id="node2" class="node"><title>1playerY</title>
<polygon fill="lightgray" stroke="black" points="105.5,-108.347 61.5,-108.347 61.5,-92.3467 105.5,-92.3467 105.5,-108.347"/>
<text text-anchor="middle" x="83.5" y="-98.7467" font-family="Times New Roman,serif" font-size="7.00">1playerY</text>
</g>
<!-- 1playerVX -->
<g id="node3" class="node"><title>1playerVX</title>
<polygon fill="lightgray" stroke="black" points="171,-108.347 124,-108.347 124,-92.3467 171,-92.3467 171,-108.347"/>
<text text-anchor="middle" x="147.5" y="-98.7467" font-family="Times New Roman,serif" font-size="7.00">1playerVX</text>
</g>
<!-- 1playerVY -->
<g id="node4" class="node"><title>1playerVY</title>
<polygon fill="lightgray" stroke="black" points="237.5,-108.347 189.5,-108.347 189.5,-92.3467 237.5,-92.3467 237.5,-108.347"/>
<text text-anchor="middle" x="213.5" y="-98.7467" font-family="Times New Roman,serif" font-size="7.00">1playerVY</text>
</g>
<!-- 2playerX -->
<g id="node5" class="node"><title>2playerX</title>
<polygon fill="lightgray" stroke="black" points="299,-108.347 256,-108.347 256,-92.3467 299,-92.3467 299,-108.347"/>
<text text-anchor="middle" x="277.5" y="-98.7467" font-family="Times New Roman,serif" font-size="7.00">2playerX</text>
</g>
<!-- 2playerY -->
<g id="node6" class="node"><title>2playerY</title>
<polygon fill="lightgray" stroke="black" points="361.5,-108.347 317.5,-108.347 317.5,-92.3467 361.5,-92.3467 361.5,-108.347"/>
<text text-anchor="middle" x="339.5" y="-98.7467" font-family="Times New Roman,serif" font-size="7.00">2playerY</text>
</g>
<!-- 2playerVX -->
<g id="node7" class="node"><title>2playerVX</title>
<polygon fill="lightgray" stroke="black" points="427,-108.347 380,-108.347 380,-92.3467 427,-92.3467 427,-108.347"/>
<text text-anchor="middle" x="403.5" y="-98.7467" font-family="Times New Roman,serif" font-size="7.00">2playerVX</text>
</g>
<!-- 2playerVY -->
<g id="node8" class="node"><title>2playerVY</title>
<polygon fill="lightgray" stroke="black" points="493.5,-108.347 445.5,-108.347 445.5,-92.3467 493.5,-92.3467 493.5,-108.347"/>
<text text-anchor="middle" x="469.5" y="-98.7467" font-family="Times New Roman,serif" font-size="7.00">2playerVY</text>
</g>
<!-- 3playerX -->
<g id="node9" class="node"><title>3playerX</title>
<polygon fill="lightgray" stroke="black" points="555,-108.347 512,-108.347 512,-92.3467 555,-92.3467 555,-108.347"/>
<text text-anchor="middle" x="533.5" y="-98.7467" font-family="Times New Roman,serif" font-size="7.00">3playerX</text>
</g>
<!-- 3playerY -->
<g id="node10" class="node"><title>3playerY</title>
<polygon fill="lightgray" stroke="black" points="617.5,-108.347 573.5,-108.347 573.5,-92.3467 617.5,-92.3467 617.5,-108.347"/>
<text text-anchor="middle" x="595.5" y="-98.7467" font-family="Times New Roman,serif" font-size="7.00">3playerY</text>
</g>
<!-- 3playerVX -->
<g id="node11" class="node"><title>3playerVX</title>
<polygon fill="lightgray" stroke="black" points="683,-108.347 636,-108.347 636,-92.3467 683,-92.3467 683,-108.347"/>
<text text-anchor="middle" x="659.5" y="-98.7467" font-family="Times New Roman,serif" font-size="7.00">3playerVX</text>
</g>
<!-- 3playerVY -->
<g id="node12" class="node"><title>3playerVY</title>
<polygon fill="lightgray" stroke="black" points="749.5,-108.347 701.5,-108.347 701.5,-92.3467 749.5,-92.3467 749.5,-108.347"/>
<text text-anchor="middle" x="725.5" y="-98.7467" font-family="Times New Roman,serif" font-size="7.00">3playerVY</text>
</g>
<!-- 4playerX -->
<g id="node13" class="node"><title>4playerX</title>
<polygon fill="lightgray" stroke="black" points="811,-108.347 768,-108.347 768,-92.3467 811,-92.3467 811,-108.347"/>
<text text-anchor="middle" x="789.5" y="-98.7467" font-family="Times New Roman,serif" font-size="7.00">4playerX</text>
</g>
<!-- 4playerY -->
<g id="node14" class="node"><title>4playerY</title>
<polygon fill="lightgray" stroke="black" points="873.5,-108.347 829.5,-108.347 829.5,-92.3467 873.5,-92.3467 873.5,-108.347"/>
<text text-anchor="middle" x="851.5" y="-98.7467" font-family="Times New Roman,serif" font-size="7.00">4playerY</text>
</g>
<!-- 4playerVX -->
<g id="node15" class="node"><title>4playerVX</title>
<polygon fill="lightgray" stroke="black" points="939,-108.347 892,-108.347 892,-92.3467 939,-92.3467 939,-108.347"/>
<text text-anchor="middle" x="915.5" y="-98.7467" font-family="Times New Roman,serif" font-size="7.00">4playerVX</text>
</g>
<!-- 4playerVY -->
<g id="node16" class="node"><title>4playerVY</title>
<polygon fill="lightgray" stroke="black" points="1005.5,-108.347 957.5,-108.347 957.5,-92.3467 1005.5,-92.3467 1005.5,-108.347"/>
<text text-anchor="middle" x="981.5" y="-98.7467" font-family="Times New Roman,serif" font-size="7.00">4playerVY</text>
</g>
<!-- 1foodX -->
<g id="node17" class="node"><title>1foodX</title>
<polygon fill="lightgray" stroke="black" points="1061.5,-108.347 1023.5,-108.347 1023.5,-92.3467 1061.5,-92.3467 1061.5,-108.347"/>
<text text-anchor="middle" x="1042.5" y="-98.7467" font-family="Times New Roman,serif" font-size="7.00">1foodX</text>
</g>
<!-- 1foodY -->
<g id="node18" class="node"><title>1foodY</title>
<polygon fill="lightgray" stroke="black" points="1117.5,-108.347 1079.5,-108.347 1079.5,-92.3467 1117.5,-92.3467 1117.5,-108.347"/>
<text text-anchor="middle" x="1098.5" y="-98.7467" font-family="Times New Roman,serif" font-size="7.00">1foodY</text>
</g>
<!-- 2foodX -->
<g id="node19" class="node"><title>2foodX</title>
<polygon fill="lightgray" stroke="black" points="1173.5,-108.347 1135.5,-108.347 1135.5,-92.3467 1173.5,-92.3467 1173.5,-108.347"/>
<text text-anchor="middle" x="1154.5" y="-98.7467" font-family="Times New Roman,serif" font-size="7.00">2foodX</text>
</g>
<!-- 2foodY -->
<g id="node20" class="node"><title>2foodY</title>
<polygon fill="lightgray" stroke="black" points="1229.5,-108.347 1191.5,-108.347 1191.5,-92.3467 1229.5,-92.3467 1229.5,-108.347"/>
<text text-anchor="middle" x="1210.5" y="-98.7467" font-family="Times New Roman,serif" font-size="7.00">2foodY</text>
</g>
<!-- 3foodX -->
<g id="node21" class="node"><title>3foodX</title>
<polygon fill="lightgray" stroke="black" points="1285.5,-108.347 1247.5,-108.347 1247.5,-92.3467 1285.5,-92.3467 1285.5,-108.347"/>
<text text-anchor="middle" x="1266.5" y="-98.7467" font-family="Times New Roman,serif" font-size="7.00">3foodX</text>
</g>
<!-- 3foodY -->
<g id="node22" class="node"><title>3foodY</title>
<polygon fill="lightgray" stroke="black" points="1341.5,-108.347 1303.5,-108.347 1303.5,-92.3467 1341.5,-92.3467 1341.5,-108.347"/>
<text text-anchor="middle" x="1322.5" y="-98.7467" font-family="Times New Roman,serif" font-size="7.00">3foodY</text>
</g>
<!-- 4foodX -->
<g id="node23" class="node"><title>4foodX</title>
<polygon fill="lightgray" stroke="black" points="1397.5,-108.347 1359.5,-108.347 1359.5,-92.3467 1397.5,-92.3467 1397.5,-108.347"/>
<text text-anchor="middle" x="1378.5" y="-98.7467" font-family="Times New Roman,serif" font-size="7.00">4foodX</text>
</g>
<!-- 4foodY -->
<g id="node24" class="node"><title>4foodY</title>
<polygon fill="lightgray" stroke="black" points="1453.5,-108.347 1415.5,-108.347 1415.5,-92.3467 1453.5,-92.3467 1453.5,-108.347"/>
<text text-anchor="middle" x="1434.5" y="-98.7467" font-family="Times New Roman,serif" font-size="7.00">4foodY</text>
</g>
<!-- 1projX -->
<g id="node25" class="node"><title>1projX</title>
<polygon fill="lightgray" stroke="black" points="1509,-108.347 1472,-108.347 1472,-92.3467 1509,-92.3467 1509,-108.347"/>
<text text-anchor="middle" x="1490.5" y="-98.7467" font-family="Times New Roman,serif" font-size="7.00">1projX</text>
</g>
<!-- 1projY -->
<g id="node26" class="node"><title>1projY</title>
<polygon fill="lightgray" stroke="black" points="1565.5,-108.347 1527.5,-108.347 1527.5,-92.3467 1565.5,-92.3467 1565.5,-108.347"/>
<text text-anchor="middle" x="1546.5" y="-98.7467" font-family="Times New Roman,serif" font-size="7.00">1projY</text>
</g>
<!-- 1projVX -->
<g id="node27" class="node"><title>1projVX</title>
<polygon fill="lightgray" stroke="black" points="1625,-108.347 1584,-108.347 1584,-92.3467 1625,-92.3467 1625,-108.347"/>
<text text-anchor="middle" x="1604.5" y="-98.7467" font-family="Times New Roman,serif" font-size="7.00">1projVX</text>
</g>
<!-- 1projVY -->
<g id="node28" class="node"><title>1projVY</title>
<polygon fill="lightgray" stroke="black" points="1685.5,-108.347 1643.5,-108.347 1643.5,-92.3467 1685.5,-92.3467 1685.5,-108.347"/>
<text text-anchor="middle" x="1664.5" y="-98.7467" font-family="Times New Roman,serif" font-size="7.00">1projVY</text>
</g>
<!-- 2projX -->
<g id="node29" class="node"><title>2projX</title>
<polygon fill="lightgray" stroke="black" points="1741,-108.347 1704,-108.347 1704,-92.3467 1741,-92.3467 1741,-108.347"/>
<text text-anchor="middle" x="1722.5" y="-98.7467" font-family="Times New Roman,serif" font-size="7.00">2projX</text>
</g>
<!-- 2projY -->
<g id="node30" class="node"><title>2projY</title>
<polygon fill="lightgray" stroke="black" points="1797.5,-108.347 1759.5,-108.347 1759.5,-92.3467 1797.5,-92.3467 1797.5,-108.347"/>
<text text-anchor="middle" x="1778.5" y="-98.7467" font-family="Times New Roman,serif" font-size="7.00">2projY</text>
</g>
<!-- 2projVX -->
<g id="node31" class="node"><title>2projVX</title>
<polygon fill="lightgray" stroke="black" points="1857,-108.347 1816,-108.347 1816,-92.3467 1857,-92.3467 1857,-108.347"/>
<text text-anchor="middle" x="1836.5" y="-98.7467" font-family="Times New Roman,serif" font-size="7.00">2projVX</text>
</g>
<!-- 2projVY -->
<g id="node32" class="node"><title>2projVY</title>
<polygon fill="lightgray" stroke="black" points="1917.5,-108.347 1875.5,-108.347 1875.5,-92.3467 1917.5,-92.3467 1917.5,-108.347"/>
<text text-anchor="middle" x="1896.5" y="-98.7467" font-family="Times New Roman,serif" font-size="7.00">2projVY</text>
</g>
<!-- 3projX -->
<g id="node33" class="node"><title>3projX</title>
<polygon fill="lightgray" stroke="black" points="1973,-108.347 1936,-108.347 1936,-92.3467 1973,-92.3467 1973,-108.347"/>
<text text-anchor="middle" x="1954.5" y="-98.7467" font-family="Times New Roman,serif" font-size="7.00">3projX</text>
</g>
<!-- Left -->
<g id="node55" class="node"><title>Left</title>
<ellipse fill="lightblue" stroke="black" cx="1954.5" cy="-19.799" rx="19.6" ry="19.6"/>
<text text-anchor="middle" x="1954.5" y="-18.199" font-family="Times New Roman,serif" font-size="7.00">Left</text>
</g>
<!-- 3projX&#45;&gt;Left -->
<g id="edge1" class="edge"><title>3projX&#45;&gt;Left</title>
<path fill="none" stroke="red" stroke-width="0.368394" d="M1954.5,-92.0979C1954.5,-82.532 1954.5,-65.1229 1954.5,-49.9025"/>
<polygon fill="red" stroke="red" stroke-width="0.368394" points="1958,-49.8382 1954.5,-39.8383 1951,-49.8383 1958,-49.8382"/>
</g>
<!-- 3projY -->
<g id="node34" class="node"><title>3projY</title>
<polygon fill="lightgray" stroke="black" points="2029.5,-108.347 1991.5,-108.347 1991.5,-92.3467 2029.5,-92.3467 2029.5,-108.347"/>
<text text-anchor="middle" x="2010.5" y="-98.7467" font-family="Times New Roman,serif" font-size="7.00">3projY</text>
</g>
<!-- 3projVX -->
<g id="node35" class="node"><title>3projVX</title>
<polygon fill="lightgray" stroke="black" points="2089,-108.347 2048,-108.347 2048,-92.3467 2089,-92.3467 2089,-108.347"/>
<text text-anchor="middle" x="2068.5" y="-98.7467" font-family="Times New Roman,serif" font-size="7.00">3projVX</text>
</g>
<!-- 3projVY -->
<g id="node36" class="node"><title>3projVY</title>
<polygon fill="lightgray" stroke="black" points="2149.5,-108.347 2107.5,-108.347 2107.5,-92.3467 2149.5,-92.3467 2149.5,-108.347"/>
<text text-anchor="middle" x="2128.5" y="-98.7467" font-family="Times New Roman,serif" font-size="7.00">3projVY</text>
</g>
<!-- 4projX -->
<g id="node37" class="node"><title>4projX</title>
<polygon fill="lightgray" stroke="black" points="2205,-108.347 2168,-108.347 2168,-92.3467 2205,-92.3467 2205,-108.347"/>
<text text-anchor="middle" x="2186.5" y="-98.7467" font-family="Times New Roman,serif" font-size="7.00">4projX</text>
</g>
<!-- 4projY -->
<g id="node38" class="node"><title>4projY</title>
<polygon fill="lightgray" stroke="black" points="2261.5,-108.347 2223.5,-108.347 2223.5,-92.3467 2261.5,-92.3467 2261.5,-108.347"/>
<text text-anchor="middle" x="2242.5" y="-98.7467" font-family="Times New Roman,serif" font-size="7.00">4projY</text>
</g>
<!-- 4projVX -->
<g id="node39" class="node"><title>4projVX</title>
<polygon fill="lightgray" stroke="black" points="2321,-108.347 2280,-108.347 2280,-92.3467 2321,-92.3467 2321,-108.347"/>
<text text-anchor="middle" x="2300.5" y="-98.7467" font-family="Times New Roman,serif" font-size="7.00">4projVX</text>
</g>
<!-- 4projVY -->
<g id="node40" class="node"><title>4projVY</title>
<polygon fill="lightgray" stroke="black" points="2381.5,-108.347 2339.5,-108.347 2339.5,-92.3467 2381.5,-92.3467 2381.5,-108.347"/>
<text text-anchor="middle" x="2360.5" y="-98.7467" font-family="Times New Roman,serif" font-size="7.00">4projVY</text>
</g>
<!-- wallR -->
<g id="node41" class="node"><title>wallR</title>
<polygon fill="lightgray" stroke="black" points="2433.5,-108.347 2399.5,-108.347 2399.5,-92.3467 2433.5,-92.3467 2433.5,-108.347"/>
<text text-anchor="middle" x="2416.5" y="-98.7467" font-family="Times New Roman,serif" font-size="7.00">wallR</text>
</g>
<!-- wallL -->
<g id="node42" class="node"><title>wallL</title>
<polygon fill="lightgray" stroke="black" points="2485.5,-108.347 2451.5,-108.347 2451.5,-92.3467 2485.5,-92.3467 2485.5,-108.347"/>
<text text-anchor="middle" x="2468.5" y="-98.7467" font-family="Times New Roman,serif" font-size="7.00">wallL</text>
</g>
<!-- WallD -->
<g id="node43" class="node"><title>WallD</title>
<polygon fill="lightgray" stroke="black" points="2539.5,-108.347 2503.5,-108.347 2503.5,-92.3467 2539.5,-92.3467 2539.5,-108.347"/>
<text text-anchor="middle" x="2521.5" y="-98.7467" font-family="Times New Roman,serif" font-size="7.00">WallD</text>
</g>
<!-- WallU -->
<g id="node44" class="node"><title>WallU</title>
<polygon fill="lightgray" stroke="black" points="2593.5,-108.347 2557.5,-108.347 2557.5,-92.3467 2593.5,-92.3467 2593.5,-108.347"/>
<text text-anchor="middle" x="2575.5" y="-98.7467" font-family="Times New Roman,serif" font-size="7.00">WallU</text>
</g>
<!-- VX -->
<g id="node45" class="node"><title>VX</title>
<polygon fill="lightgray" stroke="black" points="2637.5,-108.347 2611.5,-108.347 2611.5,-92.3467 2637.5,-92.3467 2637.5,-108.347"/>
<text text-anchor="middle" x="2624.5" y="-98.7467" font-family="Times New Roman,serif" font-size="7.00">VX</text>
</g>
<!-- VY -->
<g id="node46" class="node"><title>VY</title>
<polygon fill="lightgray" stroke="black" points="2681.5,-108.347 2655.5,-108.347 2655.5,-92.3467 2681.5,-92.3467 2681.5,-108.347"/>
<text text-anchor="middle" x="2668.5" y="-98.7467" font-family="Times New Roman,serif" font-size="7.00">VY</text>
</g>
<!-- LifeTimer -->
<g id="node47" class="node"><title>LifeTimer</title>
<polygon fill="lightgray" stroke="black" points="2743.5,-108.347 2699.5,-108.347 2699.5,-92.3467 2743.5,-92.3467 2743.5,-108.347"/>
<text text-anchor="middle" x="2721.5" y="-98.7467" font-family="Times New Roman,serif" font-size="7.00">LifeTimer</text>
</g>
<!-- Reserve -->
<g id="node48" class="node"><title>Reserve</title>
<polygon fill="lightgray" stroke="black" points="2801,-108.347 2762,-108.347 2762,-92.3467 2801,-92.3467 2801,-108.347"/>
<text text-anchor="middle" x="2781.5" y="-98.7467" font-family="Times New Roman,serif" font-size="7.00">Reserve</text>
</g>
<!-- W -->
<g id="node49" class="node"><title>W</title>
<ellipse fill="lightblue" stroke="black" cx="2835.5" cy="-100.347" rx="16.0303" ry="16.0303"/>
<text text-anchor="middle" x="2835.5" y="-98.7467" font-family="Times New Roman,serif" font-size="7.00">W</text>
</g>
<!-- S -->
<g id="node50" class="node"><title>S</title>
<ellipse fill="lightblue" stroke="black" cx="2883.5" cy="-100.347" rx="14.2857" ry="14.2857"/>
<text text-anchor="middle" x="2883.5" y="-98.7467" font-family="Times New Roman,serif" font-size="7.00">S</text>
</g>
<!-- D -->
<g id="node51" class="node"><title>D</title>
<ellipse fill="lightblue" stroke="black" cx="2931.5" cy="-100.347" rx="15.6129" ry="15.6129"/>
<text text-anchor="middle" x="2931.5" y="-98.7467" font-family="Times New Roman,serif" font-size="7.00">D</text>
</g>
<!-- A -->
<g id="node52" class="node"><title>A</title>
<ellipse fill="lightblue" stroke="black" cx="2980.5" cy="-100.347" rx="15.6129" ry="15.6129"/>
<text text-anchor="middle" x="2980.5" y="-98.7467" font-family="Times New Roman,serif" font-size="7.00">A</text>
</g>
<!-- Up -->
<g id="node53" class="node"><title>Up</title>
<ellipse fill="lightblue" stroke="black" cx="3032.5" cy="-100.347" rx="18.2703" ry="18.2703"/>
<text text-anchor="middle" x="3032.5" y="-98.7467" font-family="Times New Roman,serif" font-size="7.00">Up</text>
</g>
<!-- Down -->
<g id="node54" class="node"><title>Down</title>
<ellipse fill="lightblue" stroke="black" cx="3093.5" cy="-100.347" rx="25" ry="25"/>
<text text-anchor="middle" x="3093.5" y="-98.7467" font-family="Times New Roman,serif" font-size="7.00">Down</text>
</g>
<!-- Right -->
<g id="node56" class="node"><title>Right</title>
<ellipse fill="lightblue" stroke="black" cx="3159.5" cy="-100.347" rx="23.1702" ry="23.1702"/>
<text text-anchor="middle" x="3159.5" y="-98.7467" font-family="Times New Roman,serif" font-size="7.00">Right</text>
</g>
</g>
</svg>
